<svg xmlns="http://www.w3.org/2000/svg" width="520" height="368" role="img" aria-label="Mosaic of facebook/react dependents">
  <circle cx="32" cy="32" r="32" fill="#4648d0"/>
  <circle cx="108" cy="32" r="32" fill="#2e42d3"/>
  <circle cx="184" cy="32" r="32" fill="#7abfea"/>
  <circle cx="260" cy="32" r="32" fill="#7b87e2"/>
  <circle cx="336" cy="32" r="32" fill="#434fe9"/>
  <circle cx="412" cy="32" r="32" fill="#2d7dce"/>
  <circle cx="488" cy="32" r="32" fill="#4961e6"/>
  <circle cx="32" cy="108" r="32" fill="#4c62e4"/>
  <circle cx="108" cy="108" r="32" fill="#3d6dc1"/>
  <circle cx="184" cy="108" r="32" fill="#1e72bd"/>
  <circle cx="260" cy="108" r="32" fill="#6094cd"/>
  <circle cx="336" cy="108" r="32" fill="#2f36be"/>
  <circle cx="412" cy="108" r="32" fill="#64b9e4"/>
  <circle cx="488" cy="108" r="32" fill="#58aedf"/>
  <circle cx="32" cy="184" r="32" fill="#595ec9"/>
  <circle cx="108" cy="184" r="32" fill="#6a72e2"/>
  <circle cx="184" cy="184" r="32" fill="#3466c1"/>
  <circle cx="260" cy="184" r="32" fill="#245dd7"/>
  <circle cx="336" cy="184" r="32" fill="#2d9ae2"/>
  <circle cx="412" cy="184" r="32" fill="#2f379f"/>
  <circle cx="488" cy="184" r="32" fill="#2f8ede"/>
  <circle cx="32" cy="260" r="32" fill="#2840b0"/>
  <circle cx="108" cy="260" r="32" fill="#72a7ef"/>
  <circle cx="184" cy="260" r="32" fill="#2a3da2"/>
  <circle cx="260" cy="260" r="32" fill="#4e70cb"/>
  <circle cx="336" cy="260" r="32" fill="#6eb3ea"/>
  <circle cx="412" cy="260" r="32" fill="#227fd8"/>
  <circle cx="488" cy="260" r="32" fill="#1835cc"/>
  <circle cx="32" cy="336" r="32" fill="#3847e7"/>
  <circle cx="108" cy="336" r="32" fill="#59b1df"/>
  <circle cx="184" cy="336" r="32" fill="#7791e5"/>
  <circle cx="260" cy="336" r="32" fill="#6677ed"/>
  <circle cx="336" cy="336" r="32" fill="#2e62c3"/>
  <circle cx="412" cy="336" r="32" fill="#2a89e7"/>
  <circle cx="488" cy="336" r="32" fill="#4189c1"/>
</svg>
