<svg xmlns="http://www.w3.org/2000/svg" width="520" height="368" role="img" aria-label="Mosaic of tailwindlabs/tailwindcss dependents">
  <circle cx="32" cy="32" r="32" fill="#22d3cc"/>
  <circle cx="108" cy="32" r="32" fill="#36c7a7"/>
  <circle cx="184" cy="32" r="32" fill="#18ab98"/>
  <circle cx="260" cy="32" r="32" fill="#32b5c8"/>
  <circle cx="336" cy="32" r="32" fill="#52cfb4"/>
  <circle cx="412" cy="32" r="32" fill="#209e8b"/>
  <circle cx="488" cy="32" r="32" fill="#40d6cf"/>
  <circle cx="32" cy="108" r="32" fill="#5dedd1"/>
  <circle cx="108" cy="108" r="32" fill="#5ebcca"/>
  <circle cx="184" cy="108" r="32" fill="#33c5dd"/>
  <circle cx="260" cy="108" r="32" fill="#5ae3d2"/>
  <circle cx="336" cy="108" r="32" fill="#37ddbe"/>
  <circle cx="412" cy="108" r="32" fill="#1bdebd"/>
  <circle cx="488" cy="108" r="32" fill="#52ddb0"/>
  <circle cx="32" cy="184" r="32" fill="#27c3a1"/>
  <circle cx="108" cy="184" r="32" fill="#249079"/>
  <circle cx="184" cy="184" r="32" fill="#53dce3"/>
  <circle cx="260" cy="184" r="32" fill="#1fabb0"/>
  <circle cx="336" cy="184" r="32" fill="#3dcdb5"/>
  <circle cx="412" cy="184" r="32" fill="#3a95b6"/>
  <circle cx="488" cy="184" r="32" fill="#6cdbd2"/>
  <circle cx="32" cy="260" r="32" fill="#1a8eb3"/>
  <circle cx="108" cy="260" r="32" fill="#31ac85"/>
  <circle cx="184" cy="260" r="32" fill="#43caa3"/>
  <circle cx="260" cy="260" r="32" fill="#199e8f"/>
  <circle cx="336" cy="260" r="32" fill="#4ddec6"/>
  <circle cx="412" cy="260" r="32" fill="#3fa6d3"/>
  <circle cx="488" cy="260" r="32" fill="#35bfd6"/>
  <circle cx="32" cy="336" r="32" fill="#35d7c2"/>
  <circle cx="108" cy="336" r="32" fill="#16b08c"/>
  <circle cx="184" cy="336" r="32" fill="#33a5d9"/>
  <circle cx="260" cy="336" r="32" fill="#218d9a"/>
  <circle cx="336" cy="336" r="32" fill="#33d6a5"/>
  <circle cx="412" cy="336" r="32" fill="#35a6a4"/>
  <circle cx="488" cy="336" r="32" fill="#31b5e8"/>
</svg>
