<svg xmlns="http://www.w3.org/2000/svg" width="520" height="368" role="img" aria-label="Mosaic of vercel/next.js dependents">
  <circle cx="32" cy="32" r="32" fill="#737373"/>
  <circle cx="108" cy="32" r="32" fill="#8a8a8a"/>
  <circle cx="184" cy="32" r="32" fill="#6f6f6f"/>
  <circle cx="260" cy="32" r="32" fill="#6e6e6e"/>
  <circle cx="336" cy="32" r="32" fill="#454545"/>
  <circle cx="412" cy="32" r="32" fill="#a2a2a2"/>
  <circle cx="488" cy="32" r="32" fill="#565656"/>
  <circle cx="32" cy="108" r="32" fill="#929292"/>
  <circle cx="108" cy="108" r="32" fill="#a0a0a0"/>
  <circle cx="184" cy="108" r="32" fill="#838383"/>
  <circle cx="260" cy="108" r="32" fill="#a5a5a5"/>
  <circle cx="336" cy="108" r="32" fill="#aeaeae"/>
  <circle cx="412" cy="108" r="32" fill="#a0a0a0"/>
  <circle cx="488" cy="108" r="32" fill="#a8a8a8"/>
  <circle cx="32" cy="184" r="32" fill="#828282"/>
  <circle cx="108" cy="184" r="32" fill="#4a4a4a"/>
  <circle cx="184" cy="184" r="32" fill="#a3a3a3"/>
  <circle cx="260" cy="184" r="32" fill="#535353"/>
  <circle cx="336" cy="184" r="32" fill="#b9b9b9"/>
  <circle cx="412" cy="184" r="32" fill="#4d4d4d"/>
  <circle cx="488" cy="184" r="32" fill="#7e7e7e"/>
  <circle cx="32" cy="260" r="32" fill="#939393"/>
  <circle cx="108" cy="260" r="32" fill="#818181"/>
  <circle cx="184" cy="260" r="32" fill="#b9b9b9"/>
  <circle cx="260" cy="260" r="32" fill="#a3a3a3"/>
  <circle cx="336" cy="260" r="32" fill="#aaaaaa"/>
  <circle cx="412" cy="260" r="32" fill="#6b6b6b"/>
  <circle cx="488" cy="260" r="32" fill="#7f7f7f"/>
  <circle cx="32" cy="336" r="32" fill="#949494"/>
  <circle cx="108" cy="336" r="32" fill="#5f5f5f"/>
  <circle cx="184" cy="336" r="32" fill="#727272"/>
  <circle cx="260" cy="336" r="32" fill="#6e6e6e"/>
  <circle cx="336" cy="336" r="32" fill="#5e5e5e"/>
  <circle cx="412" cy="336" r="32" fill="#535353"/>
  <circle cx="488" cy="336" r="32" fill="#5c5c5c"/>
</svg>
